<svg width="48" height="48" viewBox="0 0 48 48" fill="none" xmlns="http://www.w3.org/2000/svg">
<path fill-rule="evenodd" clip-rule="evenodd" d="M38.4 4.8V0H9.6V4.8H0V16.8C0 18.7096 0.75857 20.5409 2.10883 21.8912C3.45909 23.2414 5.29044 24 7.2 24H9.7992C10.2989 26.9482 11.7033 29.6679 13.8177 31.7823C15.9321 33.8967 18.6518 35.3011 21.6 35.8008V43.2H14.4V48H33.6V43.2H26.4V35.8008C29.3482 35.3011 32.0679 33.8967 34.1823 31.7823C36.2967 29.6679 37.7011 26.9482 38.2008 24H40.8C42.7096 24 44.5409 23.2414 45.8912 21.8912C47.2414 20.5409 48 18.7096 48 16.8V4.8H38.4ZM33.6 4.8H14.4V21.6C14.4 24.1461 15.4114 26.5879 17.2118 28.3882C19.0121 30.1886 21.4539 31.2 24 31.2C26.5461 31.2 28.9879 30.1886 30.7882 28.3882C32.5886 26.5879 33.6 24.1461 33.6 21.6V4.8ZM38.4 9.6V19.2H40.8C41.4365 19.2 42.047 18.9471 42.4971 18.4971C42.9471 18.047 43.2 17.4365 43.2 16.8V9.6H38.4ZM9.6 19.2V9.6H4.8V16.8C4.8 17.4365 5.05286 18.047 5.50294 18.4971C5.95303 18.9471 6.56348 19.2 7.2 19.2H9.6Z" fill="#9247FF"/>
</svg>
