<svg preserveAspectRatio="none" width="100%" height="100%" overflow="visible" style="display: block;" viewBox="0 0 50 50" fill="none" xmlns="http://www.w3.org/2000/svg">
<g id="link">
<rect width="50" height="50" rx="15" fill="var(--fill-0, #18181B)"/>
<path id="Icon link" d="M17 30.6V21.8C17 21.1635 17.253 20.5532 17.7031 20.1031C18.1532 19.653 18.7635 19.4 19.4 19.4H24.2C24.6418 19.4 25 19.7582 25 20.2C25 20.6418 24.6418 21 24.2 21H19.4C19.1878 21 18.9844 21.0843 18.8344 21.2344C18.6843 21.3844 18.6 21.5878 18.6 21.8V30.6C18.6 30.8122 18.6843 31.0156 18.8344 31.1656C18.9844 31.3157 19.1878 31.4 19.4 31.4H28.2C28.4122 31.4 28.6156 31.3157 28.7656 31.1656C28.9157 31.0156 29 30.8122 29 30.6V25.8C29 25.3582 29.3582 25 29.8 25C30.2418 25 30.6 25.3582 30.6 25.8V30.6C30.6 31.2365 30.347 31.8468 29.8969 32.2969C29.4468 32.747 28.8365 33 28.2 33H19.4C18.7635 33 18.1532 32.747 17.7031 32.2969C17.253 31.8468 17 31.2365 17 30.6ZM33 22.6C33 23.0418 32.6418 23.4 32.2 23.4C31.7582 23.4 31.4 23.0418 31.4 22.6V19.7313L23.9656 27.1656C23.6532 27.478 23.1468 27.478 22.8344 27.1656C22.522 26.8532 22.522 26.3468 22.8344 26.0344L30.2688 18.6H27.4C26.9582 18.6 26.6 18.2418 26.6 17.8C26.6 17.3582 26.9582 17 27.4 17H32.2C32.6418 17 33 17.3582 33 17.8V22.6Z" fill="var(--fill-0, #707070)"/>
</g>
</svg>
